<?xml version="1.0" encoding="UTF-8"?>
<svg width="700pt" height="700pt" version="1.1" viewBox="0 0 700 700" xmlns="http://www.w3.org/2000/svg" xmlns:xlink="http://www.w3.org/1999/xlink">
 <g>
  <path fill="#ffffff" d="m351.05 375.16c6.8594-0.22656 13.398-2.9648 18.375-7.6992l140-134.4c7.2227-6.9414 10.191-17.207 7.793-26.93-2.4023-9.7227-9.8047-17.43-19.426-20.211-9.6211-2.7852-19.996-0.22656-27.219 6.7148l-120.57 115.68-120.57-115.68c-7.2227-6.9414-17.598-9.5-27.219-6.7148-9.6211 2.7812-17.023 10.488-19.426 20.211-2.3984 9.7227 0.57031 19.988 7.793 26.93l140 134.4c5.5 5.2383 12.891 8.0156 20.477 7.6992z"/>
 </g>
</svg>
