<?xml version="1.0" encoding="UTF-8"?>
<svg width="700pt" height="700pt" version="1.1" viewBox="0 0 700 700" xmlns="http://www.w3.org/2000/svg" xmlns:xlink="http://www.w3.org/1999/xlink">
 <g>
  <path fill="#ffffff" d="m625.71 552.3h-532.17c-2.3633 0-4.2891-1.9258-4.2891-4.2891v-40.512c0-2.3633 1.9258-4.2891 4.2891-4.2891h532.18c2.3633 0 4.2891 1.9258 4.2891 4.2891v40.512c-0.003906 2.3633-1.9297 4.2891-4.293 4.2891zm-527.89-8.6641h523.51v-31.938h-523.51z"/>
  <path fill="#ffffff" d="m615.65 344.84h-539.44c-2.3633 0-4.2891-1.9258-4.2891-4.2891v-40.512c0-2.3633 1.9258-4.2891 4.2891-4.2891h539.44c2.3633 0 4.2891 1.9258 4.2891 4.2891v40.512c0 2.3672-1.9258 4.2891-4.2891 4.2891zm-535.06-8.6602h530.77v-31.938h-530.77z"/>
  <path fill="#ffffff" d="m594.04 205.89c-4.8125 0-9.625-1.2266-14-3.8516l-228.46-138.25c-3.5-2.1016-7.7891-2.1016-11.199 0l-228.46 138.25c-11.988 7.0859-27.477 4.1133-35.961-6.8242-4.9883-6.3867-7-14.613-5.3359-22.574 1.5742-7.9609 6.5625-14.789 13.648-18.812l245.35-141.75c10.148-5.8633 22.75-5.8633 32.812 0l245.35 141.84c7 3.9375 11.988 10.762 13.562 18.727 1.5742 7.9609-0.35156 16.188-5.3359 22.574-5.4336 6.9961-13.57 10.672-21.969 10.672zm-248.06-152.25c3.5 0 7 0.96094 10.062 2.8008l228.46 138.25c8.2266 4.8125 18.898 2.8008 24.762-4.7266 3.4141-4.375 4.8125-10.062 3.6758-15.574s-4.5508-10.238-9.4492-12.949l-245.44-141.84c-7.4375-4.2891-16.711-4.2891-24.238 0l-245.35 141.84c-4.8984 2.8008-8.3984 7.5234-9.4492 12.949-1.1367 5.5117 0.26172 11.199 3.6758 15.574 5.8633 7.5234 16.539 9.5391 24.762 4.7266l228.38-138.25c3.1523-1.8359 6.6523-2.8008 10.152-2.8008z"/>
  <path fill="#ffffff" d="m109.64 304.24c-2.3633 0-4.2891-1.9258-4.2891-4.2891l0.003906-101.59c0-2.3633 1.9258-4.2891 4.2891-4.2891s4.2891 1.9258 4.2891 4.2891v101.59c0.082031 2.3633-1.8438 4.2891-4.293 4.2891z"/>
  <path fill="#ffffff" d="m582.23 304.24c-2.3633 0-4.2891-1.9258-4.2891-4.2891v-101.59c0-2.3633 1.9258-4.2891 4.2891-4.2891 2.3633 0 4.2891 1.9258 4.2891 4.2891v101.59c-0.003906 2.3633-1.9297 4.2891-4.2891 4.2891z"/>
  <path fill="#ffffff" d="m225.84 383.51h-120.05c-2.3633 0-4.2891-1.9258-4.2891-4.2891v-38.676c0-2.3633 1.9258-4.2891 4.2891-4.2891 2.3633 0 4.2891 1.9258 4.2891 4.2891v34.387h111.48v-34.387c0-2.3633 1.9258-4.2891 4.2891-4.2891s4.2891 1.9258 4.2891 4.2891v38.676c0.078126 2.3633-1.8438 4.2891-4.2969 4.2891z"/>
  <path fill="#ffffff" d="m408.89 383.51h-120.05c-2.3633 0-4.2891-1.9258-4.2891-4.2891v-38.676c0-2.3633 1.9258-4.2891 4.2891-4.2891 2.3633 0 4.2891 1.9258 4.2891 4.2891v34.387h111.48v-34.387c0-2.3633 1.9258-4.2891 4.2891-4.2891s4.2891 1.9258 4.2891 4.2891v38.676c-0.003907 2.3633-1.9297 4.2891-4.293 4.2891z"/>
  <path fill="#ffffff" d="m591.85 383.51h-120.05c-2.3633 0-4.2891-1.9258-4.2891-4.2891v-38.676c0-2.3633 1.9258-4.2891 4.2891-4.2891s4.2891 1.9258 4.2891 4.2891v34.387h111.48v-34.387c0-2.3633 1.9258-4.2891 4.2891-4.2891s4.2891 1.9258 4.2891 4.2891v38.676c-0.007812 2.3633-1.9336 4.2891-4.293 4.2891z"/>
  <path fill="#ffffff" d="m225.84 511.7c-2.3633 0-4.2891-1.9258-4.2891-4.2891v-34.387h-111.47v34.387c0 2.3633-1.9258 4.2891-4.2891 4.2891-2.3594 0-4.2852-1.9258-4.2852-4.2852v-38.676c0-2.3633 1.9258-4.2891 4.2891-4.2891h120.05c2.3633 0 4.2891 1.9258 4.2891 4.2891v38.676c0.082032 2.3594-1.8398 4.2852-4.293 4.2852z"/>
  <path fill="#ffffff" d="m408.89 511.7c-2.3633 0-4.2891-1.9258-4.2891-4.2891v-34.387h-111.47v34.387c0 2.3633-1.9258 4.2891-4.2891 4.2891-2.3633 0-4.2891-1.9258-4.2891-4.2891v-38.676c0-2.3633 1.9258-4.2891 4.2891-4.2891h120.05c2.3633 0 4.2891 1.9258 4.2891 4.2891v38.676c0 2.3633-1.9258 4.2891-4.2891 4.2891z"/>
  <path fill="#ffffff" d="m591.85 511.7c-2.3633 0-4.2891-1.9258-4.2891-4.2891v-34.387h-111.48v34.387c0 2.3633-1.9258 4.2891-4.2891 4.2891s-4.2891-1.9258-4.2891-4.2891v-38.676c0-2.3633 1.9258-4.2891 4.2891-4.2891h120.05c2.3633 0 4.2891 1.9258 4.2891 4.2891v38.676c0 2.3633-1.9258 4.2891-4.2852 4.2891z"/>
  <path fill="#ffffff" d="m129.41 473.02c-2.3633 0-4.2891-1.9258-4.2891-4.2891v-89.598c0-2.3633 1.9258-4.2891 4.2891-4.2891 2.3633 0 4.2891 1.9258 4.2891 4.2891v89.602c-0.003906 2.3633-1.9297 4.2852-4.2891 4.2852z"/>
  <path fill="#ffffff" d="m202.3 473.02c-2.3633 0-4.2891-1.9258-4.2891-4.2891v-89.598c0-2.3633 1.9258-4.2891 4.2891-4.2891s4.2891 1.9258 4.2891 4.2891v89.602c-0.003906 2.3633-1.9258 4.2852-4.2891 4.2852z"/>
  <path fill="#ffffff" d="m312.38 473.02c-2.3633 0-4.2891-1.9258-4.2891-4.2891v-89.598c0-2.3633 1.9258-4.2891 4.2891-4.2891s4.2891 1.9258 4.2891 4.2891v89.602c0 2.3633-1.9258 4.2852-4.2891 4.2852z"/>
  <path fill="#ffffff" d="m385.26 473.02c-2.3633 0-4.2891-1.9258-4.2891-4.2891l0.003906-89.598c0-2.3633 1.9258-4.2891 4.2891-4.2891s4.2891 1.9258 4.2891 4.2891v89.602c0.082031 2.3633-1.8438 4.2852-4.293 4.2852z"/>
  <path fill="#ffffff" d="m495.34 473.02c-2.3633 0-4.2891-1.9258-4.2891-4.2891l0.003906-89.598c0-2.3633 1.9258-4.2891 4.2891-4.2891 2.3633 0 4.2891 1.9258 4.2891 4.2891v89.602c0.082032 2.3633-1.8398 4.2852-4.293 4.2852z"/>
  <path fill="#ffffff" d="m568.31 473.02c-2.3633 0-4.2891-1.9258-4.2891-4.2891v-89.598c0-2.3633 1.9258-4.2891 4.2891-4.2891s4.2891 1.9258 4.2891 4.2891v89.602c0 2.3633-1.9258 4.2852-4.2891 4.2852z"/>
  <path fill="#ffffff" d="m345.98 183.23c-11.023 0-19.949-8.9258-19.949-20.039 0-11.023 8.9258-19.949 19.949-19.949 11.023 0 20.039 8.9258 20.039 19.949 0 2.3633-1.9258 4.2891-4.2891 4.2891-2.3633 0-4.2891-1.9258-4.2891-4.2891 0-6.3008-5.0742-11.375-11.375-11.375s-11.375 5.0742-11.375 11.375 5.0742 11.375 11.375 11.375c2.3633 0 4.2891 1.9258 4.2891 4.2891 0 2.3594-2.0156 4.375-4.375 4.375z"/>
  <path fill="#ffffff" d="m345.98 214.64c-11.023 0-19.949-8.9258-19.949-19.949 0-2.3633 1.9258-4.2891 4.2891-4.2891 2.3633 0 4.2891 1.9258 4.2891 4.2891 0 6.3008 5.0742 11.375 11.375 11.375s11.375-5.0742 11.375-11.375-5.0742-11.375-11.375-11.375c-2.3633 0-4.2891-1.9258-4.2891-4.2891 0-2.3633 1.9258-4.2891 4.2891-4.2891 11.023 0 20.039 8.9258 20.039 19.949-0.09375 10.941-9.0195 19.953-20.043 19.953z"/>
  <path fill="#ffffff" d="m345.98 222.69c-2.3633 0-4.2891-1.9258-4.2891-4.2891v-8.0508c0-2.3633 1.9258-4.2891 4.2891-4.2891 2.3633 0 4.2891 1.9258 4.2891 4.2891v8.0508c-0.003906 2.3633-1.9297 4.2891-4.2891 4.2891z"/>
  <path fill="#ffffff" d="m345.98 151.9c-2.3633 0-4.2891-1.9258-4.2891-4.2891v-8.0508c0-2.3633 1.9258-4.2891 4.2891-4.2891 2.3633 0 4.2891 1.9258 4.2891 4.2891v8.0508c-0.003906 2.3672-1.9297 4.2891-4.2891 4.2891z"/>
  <path fill="#ffffff" d="m345.98 250.25c-39.289 0-71.312-31.938-71.312-71.312 0-39.289 31.938-71.312 71.312-71.312 39.289 0 71.312 31.938 71.312 71.312-0.089843 39.289-32.027 71.312-71.312 71.312zm0-133.96c-34.562 0-62.648 28.086-62.648 62.648s28.086 62.648 62.648 62.648 62.648-28.086 62.648-62.648-28.086-62.648-62.648-62.648z"/>
 </g>
</svg>
