<?xml version="1.0" encoding="UTF-8"?>
<svg width="700pt" height="700pt" version="1.1" viewBox="0 0 700 700" xmlns="http://www.w3.org/2000/svg" xmlns:xlink="http://www.w3.org/1999/xlink">
 <g>
  <path fill="#ffffff" d="m566.75 194.9h-8.2852c-0.48047-0.71875-1.0625-1.3867-1.8008-1.9297l-202.1-149.52c-2.7148-2.0039-6.4219-2.0039-9.1367 0l-202.1 149.51c-0.73828 0.54297-1.3203 1.2109-1.8008 1.9297h-8.2852c-4.2383 0-7.6797 3.4414-7.6797 7.6797v30.434c0 4.2383 3.4336 7.6797 7.6797 7.6797h33.543v20.633c0 4.2383 3.4336 7.6797 7.6797 7.6797h4.3594v154.47h-4.2383c-4.2383 0-7.6797 3.4414-7.6797 7.6797v29.305h-12.863c-10.078 0-18.285 8.1992-18.285 18.285v21.027c0 10.078 8.1992 18.285 18.285 18.285h391.91c10.078 0 18.285-8.1992 18.285-18.285v-21.027c0-10.078-8.1992-18.285-18.285-18.285h-12.742v-29.305c0-4.2383-3.4336-7.6797-7.6797-7.6797h-4.2383l-0.003906-154.47h4.1133c4.2383 0 7.6797-3.4336 7.6797-7.6797v-20.633h33.664c4.2383 0 7.6797-3.4414 7.6797-7.6797v-30.438c0-4.2383-3.4336-7.6719-7.6797-7.6719zm-216.75-135.72 183.46 135.72-366.91 0.003907zm-116.64 181.52v12.953h-51.211v-12.953zm-11.801 28.309v154.47h-27.371v-154.47zm15.359 0h4.1211c4.2383 0 7.6797-3.4336 7.6797-7.6797v-20.633h60.27v20.633c0 4.2383 3.4414 7.6797 7.6797 7.6797h4.3594v154.47h-4.2383c-4.2383 0-7.6797 3.4414-7.6797 7.6797v29.305h-60.277v-29.305c0-4.2383-3.4336-7.6797-7.6797-7.6797h-4.2344zm87.543 191.46v-21.629h51.211v21.629zm39.293-36.988h-27.371v-154.47h27.371zm11.793-169.83h-51.203v-12.953h51.211l-0.003906 12.953zm-193.28 185.19h51.207v21.629h-51.207zm366.62 39.906v21.027c0 1.5898-1.3359 2.9258-2.9258 2.9258h-391.91c-1.5898 0-2.9258-1.3359-2.9258-2.9258v-21.027c0-1.5898 1.3359-2.9258 2.9258-2.9258h391.91c1.582 0 2.918 1.3438 2.918 2.9258zm-82.234-18.281v-21.629h51.211v21.629zm-7.6797-36.988c-4.2383 0-7.6797 3.4414-7.6797 7.6797v29.305h-60.262v-29.305c0-4.2383-3.4414-7.6797-7.6797-7.6797h-4.2383l-0.003907-154.47h4.1211c4.2383 0 7.6797-3.4336 7.6797-7.6797v-20.633h60.27v20.633c0 4.2383 3.4336 7.6797 7.6797 7.6797h4.3555v154.47zm46.973 0h-27.379v-154.47h27.379zm11.801-169.83h-51.199v-12.953h51.207l-0.003906 12.953zm41.336-28.312h-418.15v-15.078h418.15v15.078zm-209.07-118.11c-19.582 0-35.516 15.93-35.516 35.516 0 19.582 15.93 35.516 35.516 35.516 19.582 0 35.516-15.93 35.516-35.516s-15.934-35.516-35.516-35.516zm0 55.672c-11.113 0-20.16-9.0469-20.16-20.16s9.0469-20.16 20.16-20.16 20.152 9.0469 20.152 20.16c0 11.117-9.0391 20.16-20.152 20.16z"/>
 </g>
</svg>
