<?xml version="1.0" encoding="UTF-8"?>
<svg width="700pt" height="700pt" version="1.1" viewBox="0 0 700 700" xmlns="http://www.w3.org/2000/svg" xmlns:xlink="http://www.w3.org/1999/xlink">
 <g>
  <path d="m240.09 215.08h-46.375c-5.6328 0-10.203 4.5664-10.203 10.203 0 5.6328 4.5664 10.203 10.203 10.203h46.375c5.6328 0 10.203-4.5664 10.203-10.203s-4.5664-10.203-10.203-10.203z"/>
  <path d="m373.19 215.08h-46.375c-5.6328 0-10.203 4.5664-10.203 10.203 0 5.6328 4.5664 10.203 10.203 10.203h46.375c5.6328 0 10.203-4.5664 10.203-10.203s-4.5703-10.203-10.203-10.203z"/>
  <path d="m506.28 215.08h-46.375c-5.6328 0-10.203 4.5664-10.203 10.203 0 5.6328 4.5664 10.203 10.203 10.203h46.375c5.6328 0 10.203-4.5664 10.203-10.203s-4.5664-10.203-10.203-10.203z"/>
  <path d="m240.09 284.02h-46.375c-5.6328 0-10.203 4.5664-10.203 10.203 0 5.6328 4.5664 10.203 10.203 10.203h46.375c5.6328 0 10.203-4.5664 10.203-10.203 0-5.6367-4.5664-10.203-10.203-10.203z"/>
  <path d="m373.19 284.02h-46.375c-5.6328 0-10.203 4.5664-10.203 10.203 0 5.6328 4.5664 10.203 10.203 10.203h46.375c5.6328 0 10.203-4.5664 10.203-10.203 0-5.6367-4.5703-10.203-10.203-10.203z"/>
  <path d="m506.28 284.02h-46.375c-5.6328 0-10.203 4.5664-10.203 10.203 0 5.6328 4.5664 10.203 10.203 10.203h46.375c5.6328 0 10.203-4.5664 10.203-10.203 0-5.6367-4.5664-10.203-10.203-10.203z"/>
  <path d="m240.09 352.96h-46.375c-5.6328 0-10.203 4.5664-10.203 10.203 0 5.6328 4.5664 10.203 10.203 10.203h46.375c5.6328 0 10.203-4.5664 10.203-10.203 0-5.6367-4.5664-10.203-10.203-10.203z"/>
  <path d="m373.19 352.96h-46.375c-5.6328 0-10.203 4.5664-10.203 10.203 0 5.6328 4.5664 10.203 10.203 10.203h46.375c5.6328 0 10.203-4.5664 10.203-10.203 0-5.6367-4.5703-10.203-10.203-10.203z"/>
  <path d="m506.28 352.96h-46.375c-5.6328 0-10.203 4.5664-10.203 10.203 0 5.6328 4.5664 10.203 10.203 10.203h46.375c5.6328 0 10.203-4.5664 10.203-10.203 0-5.6367-4.5664-10.203-10.203-10.203z"/>
  <path d="m240.09 421.9h-46.375c-5.6328 0-10.203 4.5664-10.203 10.203 0 5.6328 4.5664 10.203 10.203 10.203h46.375c5.6328 0 10.203-4.5664 10.203-10.203s-4.5664-10.203-10.203-10.203z"/>
  <path d="m373.19 421.9h-46.375c-5.6328 0-10.203 4.5664-10.203 10.203 0 5.6328 4.5664 10.203 10.203 10.203h46.375c5.6328 0 10.203-4.5664 10.203-10.203s-4.5703-10.203-10.203-10.203z"/>
  <path d="m506.28 421.9h-46.375c-5.6328 0-10.203 4.5664-10.203 10.203 0 5.6328 4.5664 10.203 10.203 10.203h46.375c5.6328 0 10.203-4.5664 10.203-10.203s-4.5664-10.203-10.203-10.203z"/>
  <path d="m526.82 33.293h-32.133v27.824c0 6.6484-5.4102 12.059-12.059 12.059s-12.059-5.4102-12.059-12.059l0.003906-27.824h-241.14v27.824c0 6.6484-5.4102 12.059-12.059 12.059-6.6484 0-12.059-5.4102-12.059-12.059l0.003906-27.824h-32.133c-27.543 0-49.949 22.406-49.949 49.949v340.52c0 56.766 46.184 102.95 102.95 102.95h247.63c56.766 0 102.95-46.184 102.95-102.95v-340.52c0-27.543-22.406-49.949-49.949-49.949zm-353.63 20.402h11.727v7.418c0 17.898 14.562 32.461 32.461 32.461 17.898 0 32.461-14.562 32.461-32.461v-7.418h200.33v7.418c0 17.898 14.562 32.461 32.461 32.461s32.461-14.562 32.461-32.461l0.003906-7.418h11.727c16.293 0 29.547 13.254 29.547 29.547v33.523h-412.73v-33.523c0-16.289 13.254-29.547 29.547-29.547zm300.63 452.61h-247.63c-45.516 0-82.543-37.027-82.543-82.543l-0.003906-286.59h412.72v286.59c0.003906 45.516-37.027 82.547-82.543 82.547z"/>
 </g>
</svg>
