<?xml version="1.0" encoding="UTF-8"?>
<svg width="700pt" height="700pt" version="1.1" viewBox="0 0 700 700" xmlns="http://www.w3.org/2000/svg" xmlns:xlink="http://www.w3.org/1999/xlink">
 <g>
  <path d="m437.36 147.84h-8.3984v-9.5195c0-4.4805-3.9219-8.3984-8.3984-8.3984-4.4805 0-8.3984 3.9219-8.3984 8.3984v9.5195h-124.32v-9.5195c0-4.4805-3.9219-8.3984-8.3984-8.3984-4.4805 0-8.3984 3.9219-8.3984 8.3984v9.5195h-8.3984c-29.121 0-53.199 24.078-53.199 53.199v175.28c0 29.121 24.078 53.199 53.199 53.199h175.28c29.121 0 53.199-24.078 53.199-53.199l-0.003906-175.28c-0.5625-29.117-24.082-53.199-53.762-53.199zm36.402 228.48c0 20.16-16.238 36.398-36.398 36.398h-174.72c-20.16 0-36.398-16.238-36.398-36.398l-0.003907-124.88h248.08l0.003906 124.88zm0-141.68h-247.52v-33.602c0-20.16 16.238-36.398 36.398-36.398h8.3984v9.5195c0 4.4805 3.9219 8.3984 8.3984 8.3984 4.4805 0 8.3984-3.9219 8.3984-8.3984v-9.5195h124.32v9.5195c0 4.4805 3.9219 8.3984 8.3984 8.3984 4.4805 0 8.3984-3.9219 8.3984-8.3984v-9.5195h8.3984c20.16 0 36.398 16.238 36.398 36.398z"/>
  <path d="m295.68 288.96c0 4.4805-3.9219 8.3984-8.3984 8.3984h-24.641c-4.4805 0-8.3984-3.9219-8.3984-8.3984 0-4.4805 3.9219-8.3984 8.3984-8.3984h24.641c4.4805-0.003906 8.3984 3.918 8.3984 8.3984z"/>
  <path d="m370.72 288.96c0 4.4805-3.9219 8.3984-8.3984 8.3984h-24.641c-4.4805 0-8.3984-3.9219-8.3984-8.3984 0-4.4805 3.9219-8.3984 8.3984-8.3984h24.641c4.4805-0.003906 8.3984 3.918 8.3984 8.3984z"/>
  <path d="m445.76 288.96c0 4.4805-3.9219 8.3984-8.3984 8.3984h-24.641c-4.4805 0-8.3984-3.9219-8.3984-8.3984 0-4.4805 3.9219-8.3984 8.3984-8.3984h24.641c5.0352-0.003906 8.3984 3.918 8.3984 8.3984z"/>
  <path d="m295.68 330.4c0 4.4805-3.9219 8.3984-8.3984 8.3984h-24.641c-4.4805 0-8.3984-3.9219-8.3984-8.3984 0-4.4805 3.9219-8.3984 8.3984-8.3984h24.641c4.4805 0 8.3984 3.9219 8.3984 8.3984z"/>
  <path d="m370.72 330.4c0 4.4805-3.9219 8.3984-8.3984 8.3984h-24.641c-4.4805 0-8.3984-3.9219-8.3984-8.3984 0-4.4805 3.9219-8.3984 8.3984-8.3984h24.641c4.4805 0 8.3984 3.9219 8.3984 8.3984z"/>
  <path d="m445.76 330.4c0 4.4805-3.9219 8.3984-8.3984 8.3984h-24.641c-4.4805 0-8.3984-3.9219-8.3984-8.3984 0-4.4805 3.9219-8.3984 8.3984-8.3984h24.641c5.0352 0 8.3984 3.9219 8.3984 8.3984z"/>
  <path d="m295.68 371.84c0 4.4805-3.9219 8.3984-8.3984 8.3984h-24.641c-4.4805 0-8.3984-3.9219-8.3984-8.3984 0-4.4805 3.9219-8.3984 8.3984-8.3984h24.641c4.4805 0 8.3984 3.918 8.3984 8.3984z"/>
  <path d="m370.72 371.84c0 4.4805-3.9219 8.3984-8.3984 8.3984h-24.641c-4.4805 0-8.3984-3.9219-8.3984-8.3984 0-4.4805 3.9219-8.3984 8.3984-8.3984h24.641c4.4805 0 8.3984 3.918 8.3984 8.3984z"/>
  <path d="m445.76 371.84c0 4.4805-3.9219 8.3984-8.3984 8.3984h-24.641c-4.4805 0-8.3984-3.9219-8.3984-8.3984 0-4.4805 3.9219-8.3984 8.3984-8.3984h24.641c5.0352 0 8.3984 3.918 8.3984 8.3984z"/>
 </g>
</svg>
