<?xml version="1.0" encoding="UTF-8"?>
<svg width="700pt" height="700pt" version="1.1" viewBox="0 0 700 700" xmlns="http://www.w3.org/2000/svg" xmlns:xlink="http://www.w3.org/1999/xlink">
 <g>
  <path fill="#ffffff" d="m163.33 525h23.336c15.465-0.019531 30.289-6.1719 41.227-17.105 10.934-10.938 17.086-25.762 17.105-41.227v-70c-0.019531-15.465-6.1719-30.293-17.105-41.23-10.938-10.934-25.762-17.086-41.227-17.105h-23.336c-15.465 0.019531-30.289 6.1719-41.227 17.105-10.934 10.938-17.086 25.766-17.105 41.23v70c0.019531 15.465 6.1719 30.289 17.105 41.227 10.938 10.934 25.762 17.086 41.227 17.105zm-35-128.33c0-9.2852 3.6875-18.188 10.254-24.75 6.5625-6.5625 15.465-10.25 24.746-10.25h23.336c9.2812 0 18.184 3.6875 24.746 10.25 6.5664 6.5625 10.254 15.465 10.254 24.75v70c0 9.2812-3.6875 18.184-10.254 24.746-6.5625 6.5664-15.465 10.254-24.746 10.254h-23.336c-9.2812 0-18.184-3.6875-24.746-10.254-6.5664-6.5625-10.254-15.465-10.254-24.746z"/>
  <path fill="#ffffff" d="m338.33 245c-15.465 0.019531-30.289 6.1719-41.227 17.105-10.934 10.938-17.086 25.762-17.105 41.227v163.34c0.019531 15.465 6.1719 30.289 17.105 41.227 10.938 10.934 25.762 17.086 41.227 17.105h23.336c15.465-0.019531 30.289-6.1719 41.227-17.105 10.934-10.938 17.086-25.762 17.105-41.227v-163.34c-0.019531-15.465-6.1719-30.289-17.105-41.227-10.938-10.934-25.762-17.086-41.227-17.105zm58.332 58.332 0.003907 163.34c0 9.2812-3.6875 18.184-10.254 24.746-6.5625 6.5664-15.465 10.254-24.746 10.254h-23.336c-9.2812 0-18.184-3.6875-24.746-10.254-6.5664-6.5625-10.254-15.465-10.254-24.746v-163.34c0-9.2812 3.6875-18.184 10.254-24.746 6.5625-6.5664 15.465-10.254 24.746-10.254h23.336c9.2812 0 18.184 3.6875 24.746 10.254 6.5664 6.5625 10.254 15.465 10.254 24.746z"/>
  <path fill="#ffffff" d="m513.33 525h23.336c15.465-0.019531 30.289-6.1719 41.227-17.105 10.934-10.938 17.086-25.762 17.105-41.227v-256.67c-0.019531-15.465-6.1719-30.293-17.105-41.227-10.938-10.938-25.762-17.09-41.227-17.105h-23.336c-15.465 0.015625-30.289 6.168-41.227 17.105-10.934 10.934-17.086 25.762-17.105 41.227v256.67c0.019531 15.465 6.1719 30.289 17.105 41.227 10.938 10.934 25.762 17.086 41.227 17.105zm-35-315c0-9.2812 3.6875-18.184 10.254-24.75 6.5625-6.5625 15.465-10.25 24.746-10.25h23.336c9.2812 0 18.184 3.6875 24.746 10.25 6.5664 6.5664 10.254 15.469 10.254 24.75v256.67c0 9.2812-3.6875 18.184-10.254 24.746-6.5625 6.5664-15.465 10.254-24.746 10.254h-23.336c-9.2812 0-18.184-3.6875-24.746-10.254-6.5664-6.5625-10.254-15.465-10.254-24.746z"/>
  <path fill="#ffffff" d="m474.91 38.418c-4.5547-4.5547-11.941-4.5547-16.496 0l-110.71 110.71-85.82-42.906c-4.4922-2.2422-9.918-1.3594-13.465 2.1914l-93.332 93.332c-2.25 2.1758-3.5352 5.1641-3.5625 8.293-0.027344 3.1289 1.2031 6.1367 3.418 8.3516 2.2109 2.2109 5.2227 3.4414 8.3516 3.4141 3.1289-0.027344 6.1133-1.3086 8.2891-3.5586l87.383-87.383 85.82 42.965c4.4922 2.2422 9.9141 1.3594 13.465-2.1914l116.67-116.67h-0.003907c2.207-2.1914 3.4453-5.168 3.4453-8.2773 0-3.1055-1.2383-6.0859-3.4453-8.2773z"/>
 </g>
</svg>
