<?xml version="1.0" encoding="UTF-8"?>
<svg width="600pt" height="700pt" version="1.1" viewBox="0 0 700 700" xmlns="http://www.w3.org/2000/svg" xmlns:xlink="http://www.w3.org/1999/xlink">
 <g>
  <path d="m570.59 255.67h-28.746v-72.082c0-49.184-40.02-89.207-89.23-89.207h-291.24c-49.211 0-89.246 40.02-89.246 89.207v111.09c0 49.207 40.035 89.254 89.246 89.254h20.402l46.223 46.207 46.223-46.207h66.152c2.4961 29.281 26.859 52.445 56.773 52.445h104.51l29.25 29.242 29.238-29.242h10.445c31.59 0 57.289-25.703 57.289-57.281l-0.007812-66.148c0.011718-31.59-25.695-57.273-57.277-57.273zm36.805 123.41c0 20.301-16.504 36.805-36.805 36.805h-18.922l-20.758 20.758-20.758-20.758h-113c-18.613 0-33.898-13.961-36.289-31.965h91.758c49.207 0 89.23-40.039 89.23-89.254v-18.523h28.746c20.301 0 36.805 16.504 36.805 36.785l-0.003906 66.152zm-379.39 22.086-37.742-37.723h-28.887c-37.91 0-68.77-30.844-68.77-68.77v-111.09c0-37.906 30.855-68.723 68.77-68.723h291.25c37.91 0 68.75 30.824 68.75 68.723v111.09c0 37.922-30.844 68.77-68.75 68.77h-186.88z"/>
  <path d="m306.99 207.03c-16.262 0-29.445 13.164-29.445 29.445 0 16.238 13.184 29.445 29.445 29.445s29.438-13.199 29.438-29.445c0-16.285-13.176-29.445-29.438-29.445z"/>
  <path d="m409.39 265.91c16.262 0 29.445-13.199 29.445-29.445 0-16.277-13.184-29.445-29.445-29.445-16.25 0-29.445 13.164-29.445 29.445 0.007813 16.25 13.195 29.445 29.445 29.445z"/>
  <path d="m204.57 207.03c-16.262 0-29.438 13.164-29.438 29.445 0 16.238 13.184 29.445 29.438 29.445 16.258 0 29.445-13.199 29.445-29.445 0-16.285-13.184-29.445-29.445-29.445z"/>
 </g>
</svg>
