<?xml version="1.0" encoding="UTF-8"?>
<svg width="700pt" height="700pt" version="1.1" viewBox="0 0 700 550" xmlns="http://www.w3.org/2000/svg">
 <path fill="#ffffff" d="m420 93.332c30.941 0 60.617 12.293 82.496 34.172s34.172 51.555 34.172 82.496v140c0 30.941-12.293 60.617-34.172 82.496s-51.555 34.172-82.496 34.172h-140c-30.941 0-60.617-12.293-82.496-34.172s-34.172-51.555-34.172-82.496v-140c0-30.941 12.293-60.617 34.172-82.496s51.555-34.172 82.496-34.172h140m0-23.332h-140c-37.129 0-72.738 14.75-98.996 41.004-26.254 26.258-41.004 61.867-41.004 98.996v140c0 37.129 14.75 72.738 41.004 98.996 26.258 26.254 61.867 41.004 98.996 41.004h140c37.129 0 72.738-14.75 98.996-41.004 26.254-26.258 41.004-61.867 41.004-98.996v-140c0-37.129-14.75-72.738-41.004-98.996-26.258-26.254-61.867-41.004-98.996-41.004zm8.168 288.17c2.2539-2.1172 3.5352-5.0742 3.5352-8.168s-1.2812-6.0508-3.5352-8.168l-66.5-66.73v-65.102c0-6.4414-5.2266-11.668-11.668-11.668s-11.668 5.2266-11.668 11.668v70c-0.035156 3.0938 1.2344 6.0586 3.5 8.168l70 70c2.1172 2.2539 5.0742 3.5352 8.168 3.5352s6.0508-1.2812 8.168-3.5352z"/>
</svg>
