<?xml version="1.0" encoding="UTF-8"?>
<svg width="700pt" height="700pt" version="1.1" viewBox="0 0 700 700" xmlns="http://www.w3.org/2000/svg" xmlns:xlink="http://www.w3.org/1999/xlink">
 <g>
  <path d="m494.8 151.92h-289.61c-22.137 0-40.152 18.016-40.152 40.152v175.85c0 22.137 18.016 40.152 40.152 40.152h289.61c22.137 0 40.145-18.016 40.145-40.152l0.003906-175.85c-0.003906-22.137-18.012-40.152-40.152-40.152zm23.348 216c0 12.875-10.473 23.352-23.348 23.352h-289.61c-12.875 0-23.352-10.477-23.352-23.352v-103.45h336.31v103.45zm0-168.13h-336.3v-7.7227c0-12.875 10.477-23.352 23.352-23.352h289.61c12.875 0 23.348 10.477 23.348 23.352v7.7227zm-296.84 160.41h95.738c4.6406 0 8.3984-3.7617 8.3984-8.3984 0-4.6367-3.7578-8.3984-8.3984-8.3984l-95.738-0.003906c-4.6406 0-8.3984 3.7617-8.3984 8.3984 0 4.6406 3.7578 8.4023 8.3984 8.4023zm0-47.875h47.867c4.6406 0 8.3984-3.7578 8.3984-8.3984 0-4.6367-3.7578-8.3984-8.3984-8.3984h-47.867c-4.6406 0-8.3984 3.7617-8.3984 8.3984 0 4.6484 3.7578 8.3984 8.3984 8.3984zm189.5 47.875h67.859c4.6406 0 8.3984-3.7617 8.3984-8.3984v-47.875c0-4.6367-3.7578-8.3984-8.3984-8.3984l-67.859-0.003906c-4.6367 0-8.3984 3.7617-8.3984 8.3984v47.875c0 4.6406 3.7617 8.4023 8.3984 8.4023zm8.4023-47.875h51.062v31.074h-51.062z"/>
 </g>
</svg>
