<?xml version="1.0" encoding="UTF-8"?>
<svg width="700pt" height="700pt" version="1.1" viewBox="0 0 700 700" xmlns="http://www.w3.org/2000/svg" xmlns:xlink="http://www.w3.org/1999/xlink">
 <g>
  <path fill="#ffffff" d="m196.56 525.28h296.24c19.039 0 34.719-15.68 34.719-34.719l0.003906-309.68c0-2.8008-1.1211-4.4805-2.8008-6.1602l-134.4-126c-1.6797-1.6797-3.3594-2.8008-6.1602-2.8008l-187.6 0.003906c-19.039 0-34.719 15.68-34.719 34.719v409.36c0 19.602 15.68 35.281 34.719 35.281zm196.56-450.24 103.6 97.441h-103.6zm-213.92 6.1602c0-9.5195 7.8398-17.359 17.359-17.359h179.2v117.6c0 5.0391 3.3594 8.9609 8.9609 8.9609h125.44v300.16c0 9.5195-7.8398 17.359-17.359 17.359h-296.24c-9.5195 0-17.359-7.8398-17.359-17.359z"/>
  <path fill="#ffffff" d="m222.32 307.44h161.84c5.0391 0 8.9609-3.3594 8.9609-8.9609 0-5.0391-3.3594-8.9609-8.9609-8.9609h-161.84c-5.0391 0-8.9609 3.3594-8.9609 8.9609 0.5625 5.5977 3.9219 8.9609 8.9609 8.9609z"/>
  <path fill="#ffffff" d="m222.32 376.88h217.84c5.0391 0 8.9609-3.3594 8.9609-8.9609 0-5.6016-3.3594-8.9609-8.9609-8.9609l-217.84 0.003907c-5.0391 0-8.9609 3.3594-8.9609 8.9609 0 5.5977 3.9219 8.957 8.9609 8.957z"/>
  <path fill="#ffffff" d="m222.32 446.88h222.88c5.0391 0 8.9609-3.3594 8.9609-8.9609 0-5.6016-3.3594-8.9609-8.9609-8.9609l-222.88 0.003907c-5.0391 0-8.9609 3.3594-8.9609 8.9609 0 5.5977 3.9219 8.957 8.9609 8.957z"/>
 </g>
</svg>
