<?xml version="1.0" encoding="UTF-8"?>
<svg width="700pt" height="700pt" version="1.1" viewBox="0 0 700 700" xmlns="http://www.w3.org/2000/svg" xmlns:xlink="http://www.w3.org/1999/xlink">
 <g>
  <path d="m383.6 156.8c0 18.555-15.043 33.598-33.602 33.598s-33.602-15.043-33.602-33.598c0-18.559 15.043-33.602 33.602-33.602s33.602 15.043 33.602 33.602"/>
  <path d="m383.6 280c0 18.559-15.043 33.602-33.602 33.602s-33.602-15.043-33.602-33.602 15.043-33.602 33.602-33.602 33.602 15.043 33.602 33.602"/>
  <path d="m383.6 403.2c0 18.559-15.043 33.602-33.602 33.602s-33.602-15.043-33.602-33.602c0-18.555 15.043-33.598 33.602-33.598s33.602 15.043 33.602 33.598"/>
 </g>
</svg>
