<?xml version="1.0" encoding="UTF-8"?>
<svg width="700pt" height="700pt" version="1.1" viewBox="0 0 700 700" xmlns="http://www.w3.org/2000/svg" xmlns:xlink="http://www.w3.org/1999/xlink">
 <g>
  <path d="m382 151.99h-8v176h176v-8c0-92.633-75.367-168-168-168zm8 160v-143.79c77.453 4.0391 139.75 66.336 143.79 143.79z"/>
  <path d="m349.91 152.01c-3.9805 0.070313-13.273 0.23828-15.914 0.35156v-40.367h-16v41.723c-5.3594 0.6875-10.691 1.5977-16 2.7422v-108.46h-16v112h2.0195c-10.883 3.2109-11.711 3.6445-18.02 6.2109v-86.211h-16v93.594c-5.4727 2.8359-10.824 5.8906-16 9.2227v-158.82h-16v170.31c-3.8398 3.0664-7.5156 6.3125-11.098 9.6562-12.246-7.8242-26.25-11.949-40.902-11.949-41.906 0-76 34.094-76 76 0 34.668 23.191 64.492 55.984 73.34-1.6484 106.62 84.852 194.66 191.93 194.66 22.086 0 44.141-3.9844 65.562-11.852l7.4844-2.75-65.047-178.8zm-16 16.188v167.81h-130.18c47.438-23.637 56.188-85.938 19.77-122 30.207-27.469 69.453-43.906 110.41-45.812zm-151.66 94.906-20.219-5.6172c-4.7266-1.3125-8.0312-4.7422-8.0312-8.3438 0-6.8672 6.75-12.75 15.047-13.117 5.3672-0.29688 10.211 1.4531 13.531 4.6406 1.5625 1.4922 3.4219 3.9766 3.4219 7.3438h16c0-12.074-8.8008-23.555-24-26.973v-12.375c69.129 9.1953 68.867 109.51 0 118.75v-12.32c13.871-3.207 24-14.645 24-28.215 0-10.93-7.9375-20.484-19.75-23.773zm-72.25 4.9062c0-30.367 22.691-55.473 52-59.402v12.312c-13.867 3.2148-24 14.652-24 28.223 0 10.93 7.9375 20.484 19.75 23.766l20.219 5.6172c4.7266 1.3125 8.0312 4.75 8.0312 8.3516 0 17.777-32 16.492-32 1.1328h-16c0 12.055 8.8633 23.613 24 27.02v12.395c-30.961-4.2617-52-30.211-52-59.414zm284.41 243.72c-17.258 5.5-34.883 8.2812-52.5 8.2812-94.363 0-171.6-74.652-175.8-168h170.2z"/>
  <path d="m431.89 512.46 7.5234-2.7422c66.141-24.094 110.59-87.484 110.59-157.73v-8h-179.42zm9.4922-20.711-47.961-131.76h140.37c-3.0781 57.664-39.141 109.1-92.406 131.76z"/>
  <path d="m400.15 96.25 14.82-14.82-11.312-11.312-33.875 33.875 33.875 33.875 11.312-11.312-14.27-14.27c105.32 5.5781 189.3 93.016 189.3 199.71h16c0-115.7-91.445-210.42-205.85-215.74z"/>
 </g>
</svg>
