<?xml version="1.0" encoding="UTF-8"?>
<svg width="700pt" height="700pt" version="1.1" viewBox="0 0 700 700" xmlns="http://www.w3.org/2000/svg" xmlns:xlink="http://www.w3.org/1999/xlink">
 <g>
  <path fill="#ffffff" d="m609.03 262.9-229-234.25c-7.9648-8.1523-18.637-12.641-30.035-12.641s-22.07 4.4883-30.035 12.641l-59.32 60.68c-4.0781-18.258-20.41-31.945-39.879-31.945h-26.23c-22.531 0-40.863 18.332-40.863 40.863v100.51l-62.703 64.137c-6.8867 7.0469-8.8711 17.473-5.0469 26.555 3.8203 9.0859 12.66 14.957 22.52 14.957h47.609v197.58c0 23.16 18.844 42 42 42h57.027c23.156 0 42-18.84 42-42l0.003906-132.17c0-2.6719 2.1758-4.8477 4.8555-4.8477h96.129c2.6758 0 4.8555 2.1758 4.8555 4.8477v132.17c0 23.16 18.844 42 42 42h57.027c23.156 0 42-18.84 42-42v-197.58h47.609c9.8594 0 18.699-5.8711 22.52-14.957 3.8242-9.082 1.8398-19.508-5.0469-26.555zm-429.92-164.65c0-8.5039 6.9219-15.426 15.426-15.426h26.23c8.5039 0 15.426 6.9219 15.426 15.426v16.102l-57.078 58.387zm352.12 180.72c-7.0234 0-12.719 5.6953-12.719 12.719v210.3c0 9.1289-7.4336 16.562-16.562 16.562h-57.031c-9.1289 0-16.562-7.4297-16.562-16.562v-132.17c0-16.703-13.59-30.289-30.293-30.289l-96.125 0.003906c-16.703 0-30.293 13.586-30.293 30.289v132.17c0 9.1289-7.4336 16.562-16.562 16.562l-57.031-0.003907c-9.1289 0-16.562-7.4297-16.562-16.562l0.003907-210.3c0-7.0234-5.6953-12.719-12.719-12.719h-57.934l64.469-65.949c0.09375-0.09375 0.1875-0.1875 0.27734-0.28516l81.809-83.684c0.41016-0.37109 0.79688-0.76563 1.1562-1.1836l79.605-81.434c6.2891-6.4297 17.391-6.4336 23.68 0.003906l227.32 232.54z"/>
 </g>
</svg>
