<?xml version="1.0" encoding="UTF-8"?>
<svg width="700pt" height="700pt" version="1.1" viewBox="0 0 700 700" xmlns="http://www.w3.org/2000/svg" xmlns:xlink="http://www.w3.org/1999/xlink">
 <g>
  <path fill="#ffffff" d="m339.47 433.38c0-4.4531-1.7695-8.7266-4.9219-11.879-3.1484-3.1484-7.4219-4.918-11.879-4.918h-70.391v-273.17h70.391c6.0039 0 11.547-3.1992 14.551-8.3984 3-5.1992 3-11.602 0-16.801-3.0039-5.1953-8.5469-8.3984-14.551-8.3984h-103.99v340.37h103.99c4.457 0 8.7305-1.7695 11.879-4.9219 3.1523-3.1484 4.9219-7.4219 4.9219-11.879z"/>
  <path fill="#ffffff" d="m477.62 290.41c0.33594-0.44922 0.67188-0.83984 1.0078-1.2891v0.003906c0.30469-0.48828 0.58594-0.99609 0.83984-1.5117 0-0.44922 0.44922-0.83984 0.67188-1.3438 0.22266-0.60547 0.41016-1.2227 0.55859-1.8477 0-0.39062 0-0.83984 0.33594-1.2305v-0.003906c0.21094-1.0312 0.32422-2.082 0.33594-3.1367-0.011719-1.0508-0.125-2.1016-0.33594-3.1328 0-0.44922 0-0.83984-0.33594-1.2305v-0.003906c-0.14844-0.625-0.33594-1.2422-0.55859-1.8477 0-0.44922-0.44922-0.89453-0.67188-1.3438-0.25391-0.51953-0.53516-1.0234-0.83984-1.5117-0.28125-0.44922-0.67187-0.83984-1.0078-1.2891-0.33594-0.44922-0.50391-0.72656-0.78516-1.0078l-71.398-77.168c-4.082-4.4023-10.203-6.2891-16.055-4.957-5.8516 1.332-10.551 5.6875-12.32 11.426-1.7695 5.7344-0.34766 11.977 3.7344 16.379l45.246 48.832h-114.24c-6.0039 0-11.547 3.2031-14.551 8.4023-3 5.1953-3 11.602 0 16.797 3.0039 5.1992 8.5469 8.4023 14.551 8.4023h114.24l-45.246 48.832c-4.082 4.4023-5.5039 10.645-3.7344 16.379 1.7695 5.7383 6.4688 10.094 12.32 11.426 5.8516 1.332 11.973-0.55469 16.055-4.957l71.398-77.281c0.33594 0 0.55859-0.44531 0.78516-0.78516z"/>
 </g>
</svg>
