<?xml version="1.0" encoding="UTF-8"?>
<svg width="700pt" height="700pt" version="1.1" viewBox="0 0 700 700" xmlns="http://www.w3.org/2000/svg">
 <path d="m350 52.5c-4.6406 0-9.0938 1.8438-12.375 5.125s-5.125 7.7344-5.125 12.375v24.922c-34.07 2.0938-66.062 17.09-89.469 41.934-23.41 24.848-36.473 57.676-36.531 91.812v86.332c-0.039062 14.383-4.7031 28.371-13.301 39.898l-8.3984 11.199v0.003906c-7.1758 9.5195-9.6562 21.781-6.7422 33.34l3.5469 14.141h-0.003907c2.2031 8.8477 7.3086 16.703 14.5 22.305 7.1914 5.6055 16.051 8.6367 25.168 8.6133h59.43c2.1758 23.223 15.84 43.812 36.391 54.84 20.555 11.031 45.266 11.031 65.82 0 20.551-11.027 34.215-31.617 36.391-54.84h59.5c9.1172 0.019531 17.98-3.0195 25.172-8.625 7.1875-5.6094 12.293-13.465 14.492-22.316l3.5234-14.117c2.9102-11.559 0.44141-23.812-6.7188-33.34l-8.3984-11.199v-0.003906c-8.6016-11.527-13.266-25.516-13.301-39.898v-86.332c-0.0625-34.137-13.121-66.965-36.531-91.812-23.406-24.844-55.398-39.84-89.469-41.934v-24.922c0-4.6523-1.8555-9.1172-5.1523-12.398-3.2969-3.2852-7.7656-5.1211-12.418-5.1016zm0 420c-8.0703 0-15.891-2.7852-22.141-7.8867-6.25-5.1016-10.547-12.207-12.16-20.113h68.602c-1.6133 7.9062-5.9102 15.012-12.16 20.113-6.25 5.1016-14.07 7.8867-22.141 7.8867zm108.5-243.83v86.332c0.035156 21.961 7.1641 43.32 20.324 60.898l8.375 11.176v0.003906c0.81641 1.1133 1.1016 2.5312 0.76953 3.8711l-3.5234 14.117c-0.64844 2.5938-2.9727 4.418-5.6445 4.4336h-257.58c-2.6836 0.003906-5.0234-1.8281-5.668-4.4336l-3.5469-14.117c-0.31641-1.3359-0.027343-2.7461 0.79297-3.8477l8.3984-11.199v-0.003906c13.133-17.59 20.25-38.945 20.301-60.898v-86.332c0.03125-26.293 10.488-51.496 29.078-70.09 18.594-18.59 43.797-29.047 70.09-29.078h18.668-0.003907c26.293 0.03125 51.496 10.488 70.09 29.078 18.59 18.594 29.047 43.797 29.078 70.09z"/>
</svg>
