<?xml version="1.0" encoding="UTF-8"?>
<svg width="600pt" height="700pt" version="1.1" viewBox="0 0 700 500" xmlns="http://www.w3.org/2000/svg" xmlns:xlink="http://www.w3.org/1999/xlink">
 <g>
  <path d="m550.05 378.17c-7.3477-6.4023-11.562-15.664-11.562-25.41v-150.28c0-50.41-19.613-97.746-55.215-133.28-36.465-36.465-84.883-55.918-136.55-55.188-102.13 1.7305-185.22 88.062-185.22 192.44v146.3c0 9.7461-4.2148 19.008-11.559 25.41-12.895 11.234-20.289 27.488-20.289 44.594 0 25.863 21.039 46.902 46.898 46.902h113.02v15.906c0 33.32 27.105 60.426 60.426 60.426s60.426-27.105 60.426-60.426v-15.906h113.02c25.863 0 46.898-21.039 46.898-46.902 0.003906-17.102-7.3906-33.355-20.285-44.59zm-165.07 107.4c0 19.293-15.695 34.984-34.988 34.984s-34.988-15.691-34.988-34.984v-15.906h69.977zm138.45-41.344h-346.88c-11.836 0-21.461-9.6289-21.461-21.465 0-9.7461 4.2148-19.008 11.566-25.41 12.891-11.234 20.285-27.488 20.285-44.594l-0.003907-146.3c0-90.59 71.875-165.5 160.21-167 0.96094-0.015625 1.9141-0.027343 2.8711-0.027343 43.559 0 84.391 16.898 115.27 47.77 30.793 30.73 47.758 71.676 47.758 115.28v150.28c0 17.105 7.3945 33.359 20.289 44.594 7.3477 6.4023 11.562 15.664 11.562 25.41 0 11.84-9.6289 21.469-21.465 21.469z"/>
 </g>
</svg>
