<?xml version="1.0" encoding="UTF-8"?>
<svg width="700pt" height="700pt" version="1.1" viewBox="0 0 700 700" xmlns="http://www.w3.org/2000/svg" xmlns:xlink="http://www.w3.org/1999/xlink">
 <g>
  <path fill="#ffffff" d="m350.6 95.102c62.012 0 112.09 50.086 112.09 113.29 0 62.012-50.086 112.09-112.09 112.09-63.203 0-113.29-50.086-113.29-112.09 0-63.203 50.086-113.29 113.29-113.29zm0 23.852c-50.086 0-89.438 39.352-89.438 89.438 0 48.895 39.352 88.246 89.438 88.246 48.895 0 88.246-39.352 88.246-88.246 0-50.086-39.352-89.438-88.246-89.438z"/>
  <path fill="#ffffff" d="m205.11 493.4c0 5.9609-5.9609 10.734-13.117 9.5391-5.9609 0-10.734-5.9609-9.5391-13.117 9.5391-84.668 81.09-150.25 168.14-150.25 85.859 0 158.6 65.586 168.14 150.25 0 7.1562-4.7695 13.117-10.734 13.117-7.1562 1.1914-13.117-3.5781-13.117-9.5391-8.3477-73.934-70.359-129.98-144.29-129.98s-137.14 56.047-145.48 129.98z"/>
  <path fill="#ffffff" d="m571.21 191.7c48.895 0 88.246 39.352 88.246 87.055 0 48.895-39.352 88.246-88.246 88.246-47.699 0-87.055-39.352-87.055-88.246 0-47.699 39.352-87.055 87.055-87.055zm0 23.852c-34.582 0-63.203 28.621-63.203 63.203 0 35.773 28.621 64.395 63.203 64.395 35.773 0 64.395-28.621 64.395-64.395 0-34.582-28.621-63.203-64.395-63.203z"/>
  <path fill="#ffffff" d="m523.51 414.69c-5.9609 3.5781-13.117 1.1914-16.695-4.7695-2.3867-5.9609 0-13.117 5.9609-16.695 17.887-8.3477 38.16-14.309 58.434-14.309 64.395 0 119.25 47.699 128.79 110.9 1.1914 5.9609-3.5781 13.117-9.5391 13.117-7.1562 1.1914-13.117-3.5781-14.309-9.5391-7.1562-52.469-52.469-90.629-104.94-90.629-16.695 0-33.391 4.7695-47.699 11.926z"/>
  <path fill="#ffffff" d="m128.79 191.7c47.699 0 87.055 39.352 87.055 87.055 0 48.895-39.352 88.246-87.055 88.246-48.895 0-88.246-39.352-88.246-88.246 0-47.699 39.352-87.055 88.246-87.055zm0 23.852c-35.773 0-64.395 28.621-64.395 63.203 0 35.773 28.621 64.395 64.395 64.395 34.582 0 63.203-28.621 63.203-64.395 0-34.582-28.621-63.203-63.203-63.203z"/>
  <path fill="#ffffff" d="m23.852 493.4c-1.1914 5.9609-7.1562 10.734-13.117 9.5391-7.1562 0-11.926-7.1562-10.734-13.117 9.5391-63.203 64.395-110.9 128.79-110.9 20.273 0 40.547 5.9609 59.625 14.309 4.7695 3.5781 7.1562 10.734 4.7695 16.695-3.5781 5.9609-10.734 8.3477-16.695 4.7695-14.309-7.1562-31.004-11.926-47.699-11.926-52.469 0-97.785 38.16-104.94 90.629z"/>
 </g>
</svg>
