<?xml version="1.0" encoding="UTF-8"?>
<svg width="700pt" height="700pt" version="1.1" viewBox="0 0 700 600" xmlns="http://www.w3.org/2000/svg" xmlns:xlink="http://www.w3.org/1999/xlink">
 <g>
  <path fill="#ffffff" d="m451.54 227.5h-203.09c-4.832 0-8.75-3.918-8.75-8.75s3.918-8.75 8.75-8.75h203.09c4.832 0 8.75 3.918 8.75 8.75s-3.918 8.75-8.75 8.75z"/>
  <path fill="#ffffff" d="m524.39 55.957h-64.094v-7.3945c0-2.3203-0.92188-4.5469-2.5625-6.1875s-3.8672-2.5625-6.1875-2.5625h-53.77c-2.7383-15.031-12.395-27.898-26.062-34.73-13.668-6.8281-29.754-6.8281-43.422 0-13.668 6.832-23.324 19.699-26.062 34.73h-53.77c-4.832 0-8.75 3.918-8.75 8.75v7.3945h-64.094c-8.0273 0.011719-15.719 3.2031-21.395 8.8789-5.6758 5.6758-8.8711 13.371-8.8828 21.395v443.5c0.011718 8.0234 3.207 15.719 8.8828 21.395 5.6758 5.6758 13.367 8.8672 21.395 8.8789h348.73c8.0273-0.011719 15.719-3.2031 21.395-8.8789 5.6758-5.6758 8.8672-13.371 8.8789-21.395v-443.5c-0.011719-8.0156-3.1992-15.703-8.8633-21.379-5.6641-5.6719-13.348-8.8711-21.367-8.8945zm-267.18 1.3555h52.98c2.3203 0 4.5469-0.92188 6.1875-2.5625s2.5625-3.8672 2.5625-6.1875c0-11.105 5.9258-21.367 15.543-26.918 9.6172-5.5547 21.465-5.5547 31.082 0 9.6172 5.5508 15.543 15.812 15.543 26.918 0 2.3203 0.92188 4.5469 2.5625 6.1875s3.8672 2.5625 6.1875 2.5625h52.938v46.727h-185.59zm-8.75 64.227h203.09c2.3203 0 4.5469-0.92187 6.1875-2.5625 1.6406-1.6445 2.5625-3.8672 2.5625-6.1875v-39.375h32.727v425.99h-286.04v-425.95h32.727v39.375c0.023438 4.8164 3.9336 8.707 8.75 8.707zm288.75 408.19c0 3.3867-1.3477 6.6367-3.7422 9.0312-2.3945 2.3945-5.6445 3.7422-9.0352 3.7422h-348.82c-7.0547 0-12.777-5.7188-12.777-12.773v-443.5c0-7.0547 5.7227-12.773 12.777-12.773h13.867v434.74c0 2.3203 0.92188 4.5469 2.5625 6.1875s3.8672 2.5625 6.1875 2.5625h303.54c2.3203 0 4.5469-0.92188 6.1875-2.5625s2.5625-3.8672 2.5625-6.1875v-434.74h13.867c3.3906 0 6.6367 1.3438 9.0352 3.7422 2.3945 2.3945 3.7422 5.6445 3.7422 9.0312z"/>
  <path fill="#ffffff" d="m363.12 48.562c0 7.25-5.875 13.125-13.125 13.125s-13.125-5.875-13.125-13.125 5.875-13.125 13.125-13.125 13.125 5.875 13.125 13.125"/>
  <path fill="#ffffff" d="m451.54 296.23h-203.09c-4.832 0-8.75-3.918-8.75-8.75s3.918-8.75 8.75-8.75h203.09c4.832 0 8.75 3.918 8.75 8.75s-3.918 8.75-8.75 8.75z"/>
  <path fill="#ffffff" d="m451.54 364.96h-203.09c-4.832 0-8.75-3.9141-8.75-8.75 0-4.832 3.918-8.75 8.75-8.75h203.09c4.832 0 8.75 3.918 8.75 8.75 0 4.8359-3.918 8.75-8.75 8.75z"/>
 </g>
</svg>
