<?xml version="1.0" encoding="UTF-8"?>
<svg width="700pt" height="700pt" version="1.1" viewBox="-30 0 700 600" xmlns="http://www.w3.org/2000/svg" xmlns:xlink="http://www.w3.org/1999/xlink">
 <g>
  <path fill="#ffffff" d="m309.17 58.332c0 9.668-7.8359 17.5-17.5 17.5-9.668 0-17.5-7.832-17.5-17.5 0-9.6641 7.832-17.5 17.5-17.5 9.6641 0 17.5 7.8359 17.5 17.5"/>
  <path fill="#ffffff" d="m359.68 536.67h-247.68c-3.8672 0-7-3.1367-7-7v-429.34c0-3.8633 3.1328-7 7-7h74.668v13.77c0 5.5898 2.2031 10.957 6.1367 14.93 3.9297 3.9766 9.2695 6.2422 14.863 6.3008h168c5.5898-0.058593 10.93-2.3242 14.863-6.3008 3.9297-3.9727 6.1367-9.3398 6.1367-14.93v-13.77h74.668-0.003907c3.8672 0 7 3.1367 7 7v156.34c0 6.4414 5.2266 11.664 11.668 11.664s11.668-5.2227 11.668-11.664v-156.34c-0.03125-8.0352-3.2383-15.73-8.918-21.414-5.6836-5.6797-13.383-8.8867-21.418-8.918h-75.598c-1.8203-8.9492-6.6641-16.996-13.719-22.797-7.0508-5.7969-15.887-8.9961-25.016-9.0547h-10.852c-5.6562-14.793-17.09-26.648-31.668-32.844-14.578-6.1953-31.051-6.1953-45.629 0-14.578 6.1953-26.008 18.051-31.668 32.844h-10.852c-9.1289 0.058593-17.961 3.2578-25.016 9.0547-7.0508 5.8008-11.895 13.848-13.715 22.797h-75.602c-8.0352 0.03125-15.734 3.2383-21.414 8.918-5.6836 5.6836-8.8867 13.379-8.918 21.414v429.34c0.03125 8.0352 3.2344 15.73 8.918 21.414 5.6797 5.6797 13.379 8.8867 21.414 8.918h247.68c6.4414 0 11.668-5.2227 11.668-11.668 0-6.4414-5.2266-11.664-11.668-11.664zm-149.68-458.15c-0.09375-4.4258 1.5742-8.7031 4.6367-11.898 3.0625-3.1953 7.2734-5.043 11.695-5.1328h29.168l1.8672-9.4492c2.1602-10.633 9.125-19.664 18.859-24.449 9.7383-4.7852 21.141-4.7852 30.879 0 9.7344 4.7852 16.703 13.816 18.859 24.449l1.8672 9.4492h29.168c4.4258 0.089844 8.6328 1.9375 11.695 5.1328 3.0625 3.1953 4.7305 7.4727 4.6367 11.898v26.484h-163.33z"/>
  <path fill="#ffffff" d="m221.67 198.33h186.67v23.332h-186.67z"/>
  <path fill="#ffffff" d="m169.17 180.83c-7.7383 0-15.156 3.0742-20.625 8.543-5.4688 5.4727-8.543 12.891-8.543 20.625s3.0742 15.152 8.543 20.625c5.4688 5.4688 12.887 8.543 20.625 8.543 7.7344 0 15.152-3.0742 20.621-8.543 5.4727-5.4727 8.543-12.891 8.543-20.625s-3.0703-15.152-8.543-20.625c-5.4688-5.4688-12.887-8.543-20.621-8.543zm0 46.668c-4.6445 0-9.0938-1.8438-12.375-5.125s-5.125-7.7344-5.125-12.375 1.8438-9.0938 5.125-12.375 7.7305-5.125 12.375-5.125c4.6406 0 9.0898 1.8438 12.375 5.125 3.2812 3.2812 5.125 7.7344 5.125 12.375s-1.8438 9.0938-5.125 12.375c-3.2852 3.2812-7.7344 5.125-12.375 5.125z"/>
  <path fill="#ffffff" d="m221.67 315h116.67v23.332h-116.67z"/>
  <path fill="#ffffff" d="m169.17 297.5c-7.7383 0-15.156 3.0742-20.625 8.543s-8.543 12.887-8.543 20.625c0 7.7344 3.0742 15.152 8.543 20.621 5.4688 5.4727 12.887 8.543 20.625 8.543 7.7344 0 15.152-3.0703 20.621-8.543 5.4727-5.4688 8.543-12.887 8.543-20.621 0-7.7383-3.0703-15.156-8.543-20.625-5.4688-5.4688-12.887-8.543-20.621-8.543zm0 46.668c-4.6445 0-9.0938-1.8438-12.375-5.125-3.2812-3.2852-5.125-7.7344-5.125-12.375 0-4.6445 1.8438-9.0938 5.125-12.375s7.7305-5.125 12.375-5.125c4.6406 0 9.0898 1.8438 12.375 5.125 3.2812 3.2812 5.125 7.7305 5.125 12.375 0 4.6406-1.8438 9.0898-5.125 12.375-3.2852 3.2812-7.7344 5.125-12.375 5.125z"/>
  <path fill="#ffffff" d="m221.67 431.67h93.332v23.332h-93.332z"/>
  <path fill="#ffffff" d="m169.17 414.17c-7.7383 0-15.156 3.0703-20.625 8.543-5.4688 5.4688-8.543 12.887-8.543 20.621 0 7.7383 3.0742 15.156 8.543 20.625s12.887 8.543 20.625 8.543c7.7344 0 15.152-3.0742 20.621-8.543 5.4727-5.4688 8.543-12.887 8.543-20.625 0-7.7344-3.0703-15.152-8.543-20.621-5.4688-5.4727-12.887-8.543-20.621-8.543zm0 46.668v-0.003907c-4.6445 0-9.0938-1.8438-12.375-5.125s-5.125-7.7305-5.125-12.375c0-4.6406 1.8438-9.0898 5.125-12.375 3.2812-3.2812 7.7305-5.125 12.375-5.125 4.6406 0 9.0898 1.8438 12.375 5.125 3.2812 3.2852 5.125 7.7344 5.125 12.375 0 4.6445-1.8438 9.0938-5.125 12.375-3.2852 3.2812-7.7344 5.125-12.375 5.125z"/>
  <path fill="#ffffff" d="m490 303.33c-34.035 0-66.68 13.523-90.746 37.59s-37.586 56.707-37.586 90.746c0 34.035 13.52 66.676 37.586 90.742 24.066 24.07 56.711 37.59 90.746 37.59s66.68-13.52 90.746-37.59c24.066-24.066 37.586-56.707 37.586-90.742 0-34.039-13.52-66.68-37.586-90.746s-56.711-37.59-90.746-37.59zm0 233.33v0.003907c-27.848 0-54.555-11.062-74.246-30.754-19.691-19.691-30.754-46.398-30.754-74.246 0-27.848 11.062-54.555 30.754-74.246s46.398-30.754 74.246-30.754 54.555 11.062 74.246 30.754 30.754 46.398 30.754 74.246c0 27.848-11.062 54.555-30.754 74.246-19.691 19.691-46.398 30.754-74.246 30.754z"/>
  <path fill="#ffffff" d="m528.27 388.62-58.332 61.133-18.316-19.133c-4.543-4.0859-11.465-3.9766-15.875 0.25-4.4102 4.2266-4.8125 11.137-0.92578 15.848l26.602 28c2.2031 2.3203 5.2578 3.6328 8.457 3.6328s6.2539-1.3125 8.457-3.6328l66.617-70c3.8867-4.7109 3.4844-11.621-0.92578-15.848-4.4102-4.2266-11.332-4.3359-15.875-0.25z"/>
 </g>
</svg>
