<?xml version="1.0" encoding="UTF-8"?>
<svg width="700pt" height="700pt" version="1.1" viewBox="0 0 700 700" xmlns="http://www.w3.org/2000/svg" xmlns:xlink="http://www.w3.org/1999/xlink">
 <g>
  <path fill="#ffffff" d="m350 165.67c-30.32 0-59.402 12.047-80.84 33.488-21.441 21.438-33.488 50.52-33.488 80.84s12.047 59.402 33.488 80.84c21.438 21.441 50.52 33.488 80.84 33.488s59.402-12.047 80.84-33.488c21.441-21.438 33.488-50.52 33.488-80.84-0.035156-30.312-12.094-59.371-33.523-80.805-21.434-21.43-50.492-33.488-80.805-33.523zm0 194.55v0.003907c-21.277 0-41.684-8.4531-56.73-23.5s-23.5-35.453-23.5-56.73 8.4531-41.684 23.5-56.73 35.453-23.5 56.73-23.5 41.684 8.4531 56.73 23.5 23.5 35.453 23.5 56.73c-0.023438 21.27-8.4844 41.664-23.523 56.707-15.043 15.039-35.438 23.5-56.707 23.523zm259.62-138.04-60.211-14.16c-2.8555-7.9102-6.1797-15.641-9.957-23.152l31.586-51.023c2.0234-3.2656 2.8828-7.1211 2.4414-10.938-0.44531-3.8164-2.1641-7.3711-4.8828-10.086l-54.867-54.848c-2.7148-2.7227-6.2695-4.4414-10.09-4.8867-3.8164-0.44141-7.6719 0.42188-10.941 2.4453l-52.609 32.578c-7.6055-3.5742-15.422-6.6914-23.398-9.332l-13.727-58.406c-0.87891-3.7422-3-7.0781-6.0117-9.4648-3.0117-2.3828-6.7422-3.6836-10.586-3.6836h-77.582c-3.8438 0-7.5742 1.2969-10.586 3.6836-3.0156 2.3867-5.1328 5.7227-6.0117 9.4648l-14.16 60.211c-7.9062 2.8555-15.641 6.1797-23.152 9.957l-51.023-31.59c-3.2656-2.0234-7.1211-2.8828-10.938-2.4414-3.8164 0.44531-7.3711 2.1641-10.086 4.8789l-54.848 54.875c-2.7227 2.7148-4.4414 6.2695-4.8867 10.09-0.44141 3.8164 0.42188 7.6719 2.4453 10.941l32.574 52.602c-3.5703 7.6094-6.6875 15.426-9.332 23.406l-58.402 13.727c-3.7422 0.87891-7.0781 3-9.4648 6.0117-2.3828 3.0117-3.6836 6.7422-3.6836 10.586v77.582c0 3.8438 1.2969 7.5742 3.6836 10.59 2.3867 3.0117 5.7227 5.1328 9.4648 6.0117l60.211 14.156c2.8555 7.9102 6.1797 15.641 9.957 23.152l-31.586 51.023c-2.0234 3.2656-2.8828 7.1211-2.4414 10.938 0.44531 3.8164 2.1641 7.3711 4.8828 10.086l54.863 54.863h-0.003906c2.7188 2.7188 6.2734 4.4375 10.09 4.8828 3.8203 0.44141 7.6758-0.41797 10.941-2.4453l52.609-32.578c7.6055 3.5742 15.422 6.6914 23.402 9.332l13.727 58.395c0.87891 3.7422 2.9961 7.0781 6.0078 9.4648 3.0117 2.3828 6.7422 3.6836 10.586 3.6836h77.59c3.8438 0 7.5742-1.2969 10.586-3.6836 3.0156-2.3867 5.1328-5.7227 6.0117-9.4648l14.16-60.211c7.9102-2.8555 15.641-6.1797 23.152-9.957l51.023 31.586c3.2656 2.0195 7.1211 2.8789 10.938 2.4375 3.8164-0.44141 7.3711-2.1602 10.086-4.8789l54.863-54.863v0.003906c2.7188-2.7188 4.4375-6.2734 4.8828-10.09 0.44141-3.8203-0.41797-7.6758-2.4453-10.941l-32.578-52.609c3.5742-7.6055 6.6914-15.422 9.332-23.402l58.395-13.727c3.7422-0.87891 7.0781-2.9961 9.4648-6.0078 2.3828-3.0117 3.6836-6.7422 3.6836-10.586v-77.59c0-3.8438-1.2969-7.5742-3.6836-10.586-2.3867-3.0156-5.7227-5.1328-9.4648-6.0117zm-20.949 80.672-54.785 12.879v0.003907c-2.9766 0.69922-5.707 2.1836-7.9102 4.3008-2.2031 2.1133-3.7969 4.7812-4.6172 7.7266-3.4023 12.219-8.1094 24.035-14.043 35.246-2.832 5.3516-2.6133 11.805 0.57422 16.949l30.488 49.207-35.766 35.766-47.863-29.645c-2.5977-1.6094-5.5781-2.4883-8.6328-2.5508-3.0547-0.0625-6.0703 0.69922-8.7305 2.2031-11.043 6.2461-22.727 11.285-34.848 15.027-5.7773 1.7852-10.18 6.5-11.566 12.387l-13.242 56.312h-50.59l-12.887-54.785c-0.69922-2.9766-2.1836-5.707-4.2969-7.9141-2.1172-2.2031-4.7891-3.7969-7.7305-4.6133-12.219-3.4023-24.035-8.1133-35.242-14.043-5.3516-2.832-11.805-2.6133-16.949 0.57422l-49.207 30.488-35.766-35.766 29.645-47.863c1.6094-2.5977 2.4883-5.5781 2.5508-8.6328 0.0625-3.0547-0.69922-6.0703-2.2031-8.7305-6.2461-11.043-11.281-22.727-15.027-34.848-1.7852-5.7773-6.5-10.18-12.387-11.566l-56.312-13.242v-50.59l54.785-12.879v-0.003907c2.9727-0.69922 5.7031-2.1836 7.9062-4.2969 2.2031-2.1172 3.7969-4.7852 4.6133-7.7305 3.4062-12.219 8.1172-24.039 14.051-35.254 2.8281-5.3516 2.6094-11.801-0.57812-16.949l-30.488-49.199 35.766-35.766 47.863 29.648h-0.003906c2.5977 1.6094 5.582 2.4883 8.6367 2.5469 3.0547 0.0625 6.0703-0.69922 8.7305-2.2031 11.043-6.2422 22.723-11.281 34.844-15.027 5.7812-1.7852 10.184-6.5 11.566-12.387l13.242-56.312h50.574l12.887 54.785c0.69531 2.9766 2.1797 5.707 4.293 7.9102 2.1172 2.2031 4.7852 3.7969 7.7266 4.6172 12.219 3.4062 24.035 8.1133 35.25 14.043 5.3516 2.832 11.801 2.6133 16.949-0.57422l49.207-30.488 35.766 35.766-29.645 47.863c-1.6094 2.5977-2.4922 5.5781-2.5508 8.6328-0.0625 3.0547 0.69922 6.0703 2.2031 8.7305 6.2422 11.043 11.281 22.727 15.027 34.848 1.7812 5.7773 6.4961 10.18 12.387 11.566l56.312 13.242z"/>
 </g>
</svg>
