<?xml version="1.0" encoding="UTF-8"?>
<svg width="700pt" height="700pt" version="1.1" viewBox="0 0 700 700" xmlns="http://www.w3.org/2000/svg" xmlns:xlink="http://www.w3.org/1999/xlink">
 <g>
  <path fill="#ffffff" d="m574.52 473.2-31.086-254.52c-2.9727-24.285-23.656-42.57-48.113-42.57h-37.43v-115.03c0-8.2305-6.6875-14.914-14.914-14.914h-92.973c-8.2305 0-14.914 6.6875-14.914 14.914v28.742l-27.656-17.941c-6.9141-4.457-16.113-2.5156-20.57 4.3438l-64.859 99.883h-17.371c-24.457 0-45.145 18.285-48.113 42.57l-31.031 254.52c-1.1992 9.7695 1.8867 19.43 8.6875 27.086 7.4844 8.457 18.688 13.484 29.941 13.484h371.71c11.312 0 22.457-5.0273 29.941-13.484 6.8594-7.6562 9.9453-17.258 8.7461-27.086zm-209.6-364.05v-33.145h63.258v100.11h-59.715l21.43-32.973c0.57031-0.85547 0.97266-1.7148 1.3711-2.6289 0.23047-0.57031 0.34375-1.1445 0.51563-1.7148 0.11328-0.34375 0.23047-0.6875 0.28516-1.0859 0.11328-0.6875 0.11328-1.3125 0.17188-2 0-0.28516 0.058593-0.57031 0.058593-0.91406 0-0.97266-0.11328-1.8867-0.28516-2.8008v-0.058594-0.058594c-0.23047-0.91406-0.45703-1.8281-0.85547-2.6875-0.11328-0.28516-0.28516-0.51562-0.39844-0.74219-0.28516-0.62891-0.57031-1.1992-0.97266-1.7695-0.23047-0.28516-0.45703-0.57031-0.6875-0.80078-0.39844-0.45703-0.74219-0.97266-1.1992-1.4297-0.6875-0.6875-1.4844-1.3125-2.2852-1.8281zm-61.199-4.1719 38.172 24.801 14.914 9.7148-23.828 36.688-75.488-0.003906zm239.77 375.6c-1.8281 2.0586-4.8555 3.4297-7.6562 3.4297h-371.66c-2.8008 0-5.8281-1.3711-7.6562-3.4297-1.0859-1.2578-1.6016-2.5156-1.4297-3.7695l31.086-254.52c1.1445-9.4844 8.9727-16.398 18.516-16.398h290.68c9.6016 0 17.371 6.9141 18.516 16.398l31.086 254.52c0.11328 1.2578-0.34375 2.5117-1.4883 3.7695zm-85.543-224.11v47.145c0 59.543-48.398 107.94-107.94 107.94s-107.94-48.398-107.94-107.94v-47.145c0-8.2305 6.6875-14.914 14.914-14.914 8.2305 0 14.914 6.6875 14.914 14.914v47.145c0 43.086 35.086 78.172 78.172 78.172 43.086 0 78.172-35.086 78.172-78.172v-47.145c0-8.2305 6.6875-14.914 14.914-14.914 8.1133 0.058593 14.797 6.7422 14.797 14.914z"/>
 </g>
</svg>
