<?xml version="1.0" encoding="UTF-8"?>
<svg width="700pt" height="700pt" version="1.1" viewBox="0 0 700 700" xmlns="http://www.w3.org/2000/svg">
 <path fill="#ffffff" d="m542.5 525c0.003906 4.6406-1.8398 9.0938-5.1211 12.379-3.2852 3.2812-7.7383 5.125-12.379 5.1211h-350c-4.6406 0.003906-9.0938-1.8398-12.379-5.1211-3.2812-3.2852-5.125-7.7383-5.1211-12.379 0-51.055 20.281-100.02 56.383-136.12 36.102-36.102 85.062-56.383 136.12-56.383s100.02 20.281 136.12 56.383c36.102 36.102 56.383 85.062 56.383 136.12zm-192.5-437.5c-27.848 0-54.555 11.062-74.246 30.754s-30.754 46.398-30.754 74.246 11.062 54.555 30.754 74.246 46.398 30.754 74.246 30.754 54.555-11.062 74.246-30.754 30.754-46.398 30.754-74.246c-0.03125-27.84-11.102-54.527-30.789-74.211-19.684-19.688-46.371-30.758-74.211-30.789zm-157.5 157.5c9.2773-0.011719 18.176-3.7031 24.734-10.266 6.5625-6.5586 10.254-15.457 10.266-24.734v-35c0-12.504-6.6719-24.059-17.5-30.312-10.828-6.25-24.172-6.25-35 0-10.828 6.2539-17.5 17.809-17.5 30.312v35c0.011719 9.2773 3.7031 18.176 10.266 24.734 6.5586 6.5625 15.457 10.254 24.734 10.266zm157.5-192.5c47.805 0.046875 92.277 24.504 117.93 64.848 10.031-6.793 21.668-10.848 33.75-11.758-20.445-35.84-52.922-63.277-91.668-77.457-38.75-14.176-81.266-14.176-120.02 0-38.746 14.18-71.223 41.617-91.668 77.457 12.082 0.91016 23.719 4.9648 33.75 11.758 25.648-40.344 70.121-64.801 117.93-64.848zm157.5 87.5c-9.2773 0.011719-18.176 3.7031-24.734 10.266-6.5625 6.5586-10.254 15.457-10.266 24.734v35c0.019531 11.867 6.0586 22.914 16.039 29.336-2.6719 11.539-9.1719 21.84-18.438 29.223-9.2656 7.3828-20.754 11.414-32.602 11.441-6.2539 0-12.031 3.3359-15.156 8.75s-3.125 12.086 0 17.5 8.9023 8.75 15.156 8.75c20.84-0.058594 40.973-7.5586 56.77-21.152s26.215-32.387 29.379-52.984c5.6602-2.9336 10.41-7.3594 13.734-12.801 3.3242-5.4414 5.0938-11.688 5.1172-18.062v-35c-0.011719-9.2773-3.7031-18.176-10.266-24.734-6.5586-6.5625-15.457-10.254-24.734-10.266z"/>
</svg>
