<?xml version="1.0" encoding="UTF-8"?>
<svg width="700pt" height="700pt" version="1.1" viewBox="0 0 700 700" xmlns="http://www.w3.org/2000/svg" xmlns:xlink="http://www.w3.org/1999/xlink">
 <g>
  <path fill="#ffffff" d="m267.25 364.09c32.434 0 58.828-26.395 58.828-58.828s-26.395-58.828-58.828-58.828-58.828 26.387-58.828 58.828 26.391 58.828 58.828 58.828zm0-106.46c26.258 0 47.629 21.363 47.629 47.629s-21.363 47.629-47.629 47.629-47.629-21.363-47.629-47.629c0-26.258 21.363-47.629 47.629-47.629z"/>
  <path fill="#ffffff" d="m206.02 529.17c0.18359 0.015625 0.375 0.027344 0.57031 0.027344h121.3c0.19141 0 0.37891-0.011719 0.57031-0.027344 21.996-2.25 38.586-20.652 38.586-42.801v-3.4727c0-55.031-44.766-99.805-99.797-99.805-55.031 0.003906-99.812 44.77-99.812 99.801v3.4727c0 22.152 16.586 40.555 38.582 42.805zm-27.383-46.277c0-48.855 39.75-88.602 88.602-88.602 48.855 0 88.598 39.75 88.598 88.602v3.4727c0 16.297-12.125 29.844-28.246 31.629h-120.71c-16.121-1.7852-28.246-15.34-28.246-31.629z"/>
  <path fill="#ffffff" d="m416.07 263.78c64.23 0 116.49-52.258 116.49-116.49-0.003906-64.23-52.262-116.49-116.49-116.49-64.238 0-116.5 52.258-116.5 116.49-0.003907 64.23 52.258 116.49 116.5 116.49zm0-221.78c58.055 0 105.29 47.234 105.29 105.29 0 58.055-47.234 105.29-105.29 105.29-58.062 0-105.3-47.234-105.3-105.29 0.003907-58.059 47.238-105.29 105.3-105.29z"/>
  <path fill="#ffffff" d="m392.18 120.39c0-13.172 10.711-23.891 23.883-23.891 13.176 0 23.891 10.719 23.891 23.891 0 10.59-7.1328 16.766-14.695 23.312-8.2266 7.125-16.727 14.488-18.848 28.629-0.45312 2.7344-0.6875 5.6953-0.73828 9.2461h12.953c0.015625-2.5664 0.10156-4.9062 0.60938-7.4609 1.9414-10.086 9.1172-16.391 16.055-22.488 9.0664-7.9688 17.629-15.496 17.629-31.238 0-20.316-16.531-36.855-36.855-36.855-20.316 0-36.848 16.531-36.848 36.855v0.44141h12.965z"/>
  <path fill="#ffffff" d="m405.65 198.08h12.957v12.965h-12.957z"/>
 </g>
</svg>
