<?xml version="1.0" encoding="UTF-8"?>
<svg width="700pt" height="700pt" version="1.1" viewBox="0 0 700 550" xmlns="http://www.w3.org/2000/svg" xmlns:xlink="http://www.w3.org/1999/xlink">
 <g>
  <path fill="#ffffff" d="m606.87 249.29c4.7383-0.13281 8.5117-4.0117 8.5078-8.75v-57.883c-0.015625-13.918-5.5508-27.262-15.395-37.105-9.8438-9.8398-23.184-15.379-37.105-15.395h-425.75c-13.922 0.015625-27.262 5.5547-37.105 15.395-9.8438 9.8438-15.379 23.188-15.395 37.105v57.859c0 2.3203 0.92188 4.5469 2.5625 6.1875s3.8672 2.5625 6.1875 2.5625h0.37109c10.984 0 21.133 5.8594 26.625 15.371 5.4922 9.5156 5.4922 21.234 0 30.746-5.4922 9.5117-15.641 15.375-26.625 15.375h-0.40625c-4.832 0-8.75 3.9141-8.75 8.75v57.836c0.019531 13.918 5.5547 27.262 15.398 37.105 9.8398 9.8398 23.184 15.379 37.102 15.395h425.79c13.922-0.015625 27.262-5.5547 37.105-15.395 9.8438-9.8438 15.379-23.188 15.395-37.105v-57.883c0.003906-4.7383-3.7695-8.6172-8.5078-8.75-10.777-0.28516-20.617-6.2031-25.922-15.586-5.3086-9.3867-5.3086-20.863 0-30.25 5.3047-9.3828 15.145-15.301 25.922-15.586zm-8.9922 77.953v50.102c0 9.2812-3.6875 18.184-10.25 24.75-6.5625 6.5625-15.465 10.25-24.75 10.25h-125.3v-7.6562c0-4.832-3.918-8.75-8.75-8.75-4.8359 0-8.75 3.918-8.75 8.75v7.6562h-282.95c-9.2852 0-18.188-3.6875-24.75-10.25-6.5625-6.5664-10.25-15.469-10.25-24.75v-49.844c14.996-2.6641 27.852-12.25 34.684-25.867 6.8281-13.613 6.8281-29.652 0-43.266-6.832-13.617-19.688-23.203-34.684-25.867v-49.844c0-9.2812 3.6875-18.184 10.25-24.75 6.5625-6.5625 15.465-10.25 24.75-10.25h282.95v7.6562c0 4.832 3.9141 8.75 8.75 8.75 4.832 0 8.75-3.918 8.75-8.75v-7.6562h125.3c9.2852 0 18.188 3.6875 24.75 10.25 6.5625 6.5664 10.25 15.469 10.25 24.75v50.07c-14.582 3.043-26.941 12.652-33.488 26.031-6.5469 13.383-6.5469 29.035 0 42.418 6.5469 13.379 18.906 22.988 33.488 26.031z"/>
  <path fill="#ffffff" d="m428.83 324.67c-4.8359 0-8.75 3.918-8.75 8.75v35.613c0 4.832 3.9141 8.75 8.75 8.75 4.832 0 8.75-3.918 8.75-8.75v-35.613c0-2.3203-0.92188-4.5469-2.5625-6.1875-1.6445-1.6406-3.8672-2.5625-6.1875-2.5625z"/>
  <path fill="#ffffff" d="m428.83 182.22c-4.8359 0-8.75 3.918-8.75 8.75v35.613c0 4.832 3.9141 8.75 8.75 8.75 4.832 0 8.75-3.918 8.75-8.75v-35.613c0-2.3203-0.92188-4.5469-2.5625-6.1875-1.6445-1.6406-3.8672-2.5625-6.1875-2.5625z"/>
  <path fill="#ffffff" d="m428.83 253.45c-4.8359 0-8.75 3.9141-8.75 8.75v35.613-0.003906c0 4.8359 3.9141 8.75 8.75 8.75 4.832 0 8.75-3.9141 8.75-8.75v-35.609c0-2.3203-0.92188-4.5469-2.5625-6.1875-1.6445-1.6406-3.8672-2.5625-6.1875-2.5625z"/>
 </g>
</svg>
