<?xml version="1.0" encoding="UTF-8"?>
<svg width="700pt" height="700pt" version="1.1" viewBox="0 0 700 700" xmlns="http://www.w3.org/2000/svg">
 <g>
  <path fill="#ffffff" d="m542.5 70h-350c-23.199 0.027344-45.438 9.2539-61.84 25.66-16.406 16.402-25.633 38.641-25.66 61.84v245c0.027344 23.199 9.2539 45.438 25.66 61.84 16.402 16.406 38.641 25.633 61.84 25.66h350c13.926 0 27.277-5.5312 37.125-15.375 9.8438-9.8477 15.375-23.199 15.375-37.125v-315c0-13.926-5.5312-27.277-15.375-37.125-9.8477-9.8438-23.199-15.375-37.125-15.375zm0 385h-350c-13.926 0-27.277-5.5312-37.125-15.375-9.8438-9.8477-15.375-23.199-15.375-37.125v-245c0-13.926 5.5312-27.277 15.375-37.125 9.8477-9.8438 23.199-15.375 37.125-15.375h350c4.6406 0 9.0938 1.8438 12.375 5.125s5.125 7.7344 5.125 12.375v70h-70c-31.262 0-60.148 16.676-75.777 43.75s-15.629 60.426 0 87.5 44.516 43.75 75.777 43.75h70v70c0 4.6406-1.8438 9.0938-5.125 12.375s-7.7344 5.125-12.375 5.125zm17.5-122.5h-70c-18.758 0-36.09-10.008-45.465-26.25-9.3789-16.242-9.3789-36.258 0-52.5 9.375-16.242 26.707-26.25 45.465-26.25h70z"/>
  <path fill="#ffffff" d="m507.5 280c0 9.6641-7.8359 17.5-17.5 17.5s-17.5-7.8359-17.5-17.5 7.8359-17.5 17.5-17.5 17.5 7.8359 17.5 17.5"/>
 </g>
</svg>
