<?xml version="1.0" encoding="UTF-8"?>
<svg width="700pt" height="700pt" version="1.1" viewBox="0 0 700 700" xmlns="http://www.w3.org/2000/svg">
 <g>
  <path fill="#ffffff" d="m238 179.2c-8.9102 0-17.457 3.5391-23.758 9.8438-6.3008 6.3008-9.8438 14.848-9.8438 23.758 0 8.9102 3.543 17.457 9.8438 23.758 6.3008 6.3008 14.848 9.8398 23.758 9.8398s17.457-3.5391 23.758-9.8398c6.3008-6.3008 9.8438-14.848 9.8438-23.758 0-8.9102-3.543-17.457-9.8438-23.758-6.3008-6.3047-14.848-9.8438-23.758-9.8438zm0 44.801c-4.5312 0-8.6133-2.7305-10.348-6.9141-1.7344-4.1836-0.77344-9.0039 2.4297-12.207s8.0195-4.1602 12.203-2.4258c4.1875 1.7344 6.9141 5.8164 6.9141 10.348 0 2.9688-1.1797 5.8203-3.2812 7.918-2.0977 2.1016-4.9492 3.2812-7.918 3.2812z"/>
  <path fill="#ffffff" d="m417.2 212.8c0-2.9727-1.1797-5.8203-3.2812-7.9219-2.0977-2.0977-4.9492-3.2773-7.918-3.2773h-100.8c-6.1836 0-11.199 5.0117-11.199 11.199 0 6.1836 5.0156 11.199 11.199 11.199h100.8c2.9688 0 5.8203-1.1797 7.918-3.2812 2.1016-2.0977 3.2812-4.9492 3.2812-7.918z"/>
  <path fill="#ffffff" d="m238 291.2c-8.9102 0-17.457 3.5391-23.758 9.8438-6.3008 6.3008-9.8438 14.848-9.8438 23.758 0 8.9102 3.543 17.457 9.8438 23.758 6.3008 6.3008 14.848 9.8398 23.758 9.8398s17.457-3.5391 23.758-9.8398c6.3008-6.3008 9.8438-14.848 9.8438-23.758 0-8.9102-3.543-17.457-9.8438-23.758-6.3008-6.3047-14.848-9.8438-23.758-9.8438zm0 44.801c-4.5312 0-8.6133-2.7305-10.348-6.9141-1.7344-4.1836-0.77344-9.0039 2.4297-12.207s8.0195-4.1602 12.203-2.4258c4.1875 1.7344 6.9141 5.8164 6.9141 10.348 0 2.9688-1.1797 5.8203-3.2812 7.918-2.0977 2.1016-4.9492 3.2812-7.918 3.2812z"/>
  <path fill="#ffffff" d="m305.2 313.6c-6.1836 0-11.199 5.0117-11.199 11.199 0 6.1836 5.0156 11.199 11.199 11.199h44.801c6.1875 0 11.199-5.0156 11.199-11.199 0-6.1875-5.0117-11.199-11.199-11.199z"/>
  <path fill="#ffffff" d="m494.23 403.2h-15.41v-47.645c0-6.1836-5.0156-11.199-11.203-11.199-6.1836 0-11.199 5.0156-11.199 11.199v58.844c0 2.9727 1.1797 5.8203 3.2812 7.9219 2.1016 2.1016 4.9492 3.2812 7.918 3.2812h26.613c6.1836 0 11.199-5.0156 11.199-11.203 0-6.1836-5.0156-11.199-11.199-11.199z"/>
  <path fill="#ffffff" d="m487.27 293.12-25.402-25.469h0.003907c-4.3945-4.2422-11.383-4.1836-15.703 0.13672-4.3203 4.3203-4.3789 11.309-0.13672 15.703l8.9609 8.9609v-0.003906c-40.148 3.9922-75.375 28.473-93.109 64.715-17.734 36.242-15.449 79.082 6.043 113.23h-185.92v-358.4h67.199c0.09375 5.9727 2.5352 11.672 6.793 15.863 4.2578 4.1875 9.9922 6.5391 15.965 6.5352h111.29c5.9727 0.003906 11.707-2.3477 15.965-6.5352 4.2578-4.1914 6.6992-9.8906 6.793-15.863h67.199v124.14c0 6.1875 5.0156 11.199 11.199 11.199 6.1875 0 11.203-5.0117 11.203-11.199v-135.34c0-2.9727-1.1797-5.8203-3.2812-7.9219-2.1016-2.0977-4.9492-3.2773-7.9219-3.2773h-78.398v-22.043c-0.007812-6.0352-2.4062-11.82-6.6719-16.086s-10.051-6.668-16.086-6.6719h-111.29c-6.0312 0.003907-11.816 2.4062-16.086 6.6719-4.2656 4.2656-6.6641 10.051-6.6719 16.086v22.043h-78.398c-6.1875 0-11.199 5.0117-11.199 11.199v380.8c0 2.9688 1.1797 5.8164 3.2773 7.918 2.1016 2.1016 4.9492 3.2812 7.9219 3.2812h214.77c26.699 26.18 64.273 38.082 101.18 32.047 36.902-6.0312 68.727-29.281 85.699-62.602 16.973-33.324 17.059-72.734 0.23828-106.13-16.824-33.398-48.543-56.789-85.422-62.988zm-215.31-225.93 111.64 0.35938v44.082c0 0.097656-0.039062 0.1875-0.10547 0.25391-0.066406 0.066407-0.16016 0.10547-0.25391 0.10547l-111.64-0.35938zm195.66 436.8c-32.031 0.042969-61.934-16.043-79.555-42.797-17.617-26.75-20.59-60.574-7.8984-89.988 12.688-29.41 39.328-50.461 70.879-56.004l-5.6445 5.6211v0.003907c-4.3711 4.3711-4.3711 11.461 0 15.836 2.0859 2.1289 4.9453 3.3242 7.9297 3.3164 2.9648 0 5.8086-1.1797 7.9062-3.2695l21.727-21.637v-0.003906c31.777 5.1172 58.805 25.965 71.824 55.395 13.02 29.434 10.266 63.457-7.3203 90.41-17.586 26.953-47.617 43.18-79.801 43.117z"/>
 </g>
</svg>
